<mxfile host="app.diagrams.net" modified="2024-05-28T12:02:33.506Z" agent="Mozilla/5.0 (Windows NT 10.0; Win64; x64) AppleWebKit/537.36 (KHTML, like Gecko) Chrome/121.0.0.0 Safari/537.36" etag="xYsieZxzO6BI8JiNMA1m" version="24.4.9" type="device">
  <diagram name="Página-1" id="1-h3GpsxBnJdzjHZiAmc">
    <mxGraphModel dx="1434" dy="782" grid="1" gridSize="10" guides="1" tooltips="1" connect="1" arrows="1" fold="1" page="1" pageScale="1" pageWidth="827" pageHeight="1169" math="0" shadow="0">
      <root>
        <mxCell id="0" />
        <mxCell id="1" parent="0" />
        <mxCell id="JyLQnF9ykIQVdabZlufU-1" value="" style="rounded=1;whiteSpace=wrap;html=1;fillColor=#f5f5f5;gradientColor=#b3b3b3;strokeColor=#666666;" vertex="1" parent="1">
          <mxGeometry x="110" y="60" width="420" height="610" as="geometry" />
        </mxCell>
        <mxCell id="JyLQnF9ykIQVdabZlufU-2" value="" style="rounded=1;whiteSpace=wrap;html=1;fillColor=#f5f5f5;gradientColor=#b3b3b3;strokeColor=#666666;" vertex="1" parent="1">
          <mxGeometry x="620" y="155" width="610" height="420" as="geometry" />
        </mxCell>
        <mxCell id="JyLQnF9ykIQVdabZlufU-3" value="&lt;font style=&quot;font-size: 24px;&quot;&gt;Costura&lt;/font&gt;" style="text;html=1;align=center;verticalAlign=middle;resizable=0;points=[];autosize=1;strokeColor=none;fillColor=none;" vertex="1" parent="1">
          <mxGeometry x="260" y="115" width="110" height="40" as="geometry" />
        </mxCell>
        <mxCell id="JyLQnF9ykIQVdabZlufU-4" value="&lt;font style=&quot;font-size: 24px;&quot;&gt;Costura&lt;/font&gt;" style="text;html=1;align=center;verticalAlign=middle;resizable=0;points=[];autosize=1;strokeColor=none;fillColor=none;" vertex="1" parent="1">
          <mxGeometry x="860" y="200" width="110" height="40" as="geometry" />
        </mxCell>
        <mxCell id="JyLQnF9ykIQVdabZlufU-6" value="Maria&amp;nbsp; =&amp;nbsp; 30pç por hr" style="text;html=1;align=center;verticalAlign=middle;resizable=0;points=[];autosize=1;strokeColor=none;fillColor=none;" vertex="1" parent="1">
          <mxGeometry x="150" y="190" width="130" height="30" as="geometry" />
        </mxCell>
        <mxCell id="JyLQnF9ykIQVdabZlufU-7" value="Ana&amp;nbsp; =&amp;nbsp; 40pç por hr" style="text;html=1;align=center;verticalAlign=middle;resizable=0;points=[];autosize=1;strokeColor=none;fillColor=none;" vertex="1" parent="1">
          <mxGeometry x="140" y="240" width="130" height="30" as="geometry" />
        </mxCell>
        <mxCell id="JyLQnF9ykIQVdabZlufU-9" value="Sofia&amp;nbsp; =&amp;nbsp; 45pç por hr" style="text;html=1;align=center;verticalAlign=middle;resizable=0;points=[];autosize=1;strokeColor=none;fillColor=none;" vertex="1" parent="1">
          <mxGeometry x="140" y="290" width="130" height="30" as="geometry" />
        </mxCell>
        <mxCell id="JyLQnF9ykIQVdabZlufU-10" value="Laura&amp;nbsp; =&amp;nbsp; 40pç por hr" style="text;html=1;align=center;verticalAlign=middle;resizable=0;points=[];autosize=1;strokeColor=none;fillColor=none;" vertex="1" parent="1">
          <mxGeometry x="140" y="340" width="140" height="30" as="geometry" />
        </mxCell>
        <mxCell id="JyLQnF9ykIQVdabZlufU-11" value="Carolina&amp;nbsp; =&amp;nbsp; 35pç por hr" style="text;html=1;align=center;verticalAlign=middle;resizable=0;points=[];autosize=1;strokeColor=none;fillColor=none;" vertex="1" parent="1">
          <mxGeometry x="140" y="400" width="150" height="30" as="geometry" />
        </mxCell>
        <mxCell id="JyLQnF9ykIQVdabZlufU-13" value="Quanto tempo 1.300pç" style="rounded=1;whiteSpace=wrap;html=1;shadow=1;fillColor=#B0B0B0;" vertex="1" parent="1">
          <mxGeometry x="250" y="460" width="130" height="50" as="geometry" />
        </mxCell>
        <mxCell id="JyLQnF9ykIQVdabZlufU-14" value="?" style="rounded=1;whiteSpace=wrap;html=1;shadow=1;fillColor=#eeeeee;strokeColor=#36393d;sketch=1;curveFitting=1;jiggle=2;" vertex="1" parent="1">
          <mxGeometry x="250" y="540" width="135" height="45" as="geometry" />
        </mxCell>
        <mxCell id="JyLQnF9ykIQVdabZlufU-15" value="Maria&amp;nbsp; =&amp;nbsp; 30pç por hr" style="text;html=1;align=center;verticalAlign=middle;resizable=0;points=[];autosize=1;strokeColor=none;fillColor=none;" vertex="1" parent="1">
          <mxGeometry x="680" y="270" width="130" height="30" as="geometry" />
        </mxCell>
        <mxCell id="JyLQnF9ykIQVdabZlufU-16" value="Ana&amp;nbsp; =&amp;nbsp; 40pç por hr" style="text;html=1;align=center;verticalAlign=middle;resizable=0;points=[];autosize=1;strokeColor=none;fillColor=none;" vertex="1" parent="1">
          <mxGeometry x="680" y="320" width="130" height="30" as="geometry" />
        </mxCell>
        <mxCell id="JyLQnF9ykIQVdabZlufU-17" value="Sofia&amp;nbsp; =&amp;nbsp; 45pç por hr" style="text;html=1;align=center;verticalAlign=middle;resizable=0;points=[];autosize=1;strokeColor=none;fillColor=none;" vertex="1" parent="1">
          <mxGeometry x="680" y="370" width="130" height="30" as="geometry" />
        </mxCell>
        <mxCell id="JyLQnF9ykIQVdabZlufU-18" value="Laura&amp;nbsp; =&amp;nbsp; 40pç por hr" style="text;html=1;align=center;verticalAlign=middle;resizable=0;points=[];autosize=1;strokeColor=none;fillColor=none;" vertex="1" parent="1">
          <mxGeometry x="940" y="270" width="140" height="30" as="geometry" />
        </mxCell>
        <mxCell id="JyLQnF9ykIQVdabZlufU-19" value="Carolina&amp;nbsp; =&amp;nbsp; 35pç por hr" style="text;html=1;align=center;verticalAlign=middle;resizable=0;points=[];autosize=1;strokeColor=none;fillColor=none;" vertex="1" parent="1">
          <mxGeometry x="935" y="320" width="150" height="30" as="geometry" />
        </mxCell>
        <mxCell id="JyLQnF9ykIQVdabZlufU-20" value="Quanto tempo 1.300pç" style="rounded=1;whiteSpace=wrap;html=1;shadow=1;fillColor=#B0B0B0;" vertex="1" parent="1">
          <mxGeometry x="950" y="390" width="130" height="50" as="geometry" />
        </mxCell>
        <mxCell id="JyLQnF9ykIQVdabZlufU-21" value="?" style="rounded=1;whiteSpace=wrap;html=1;shadow=1;fillColor=#eeeeee;strokeColor=#36393d;sketch=1;curveFitting=1;jiggle=2;" vertex="1" parent="1">
          <mxGeometry x="847.5" y="480" width="135" height="45" as="geometry" />
        </mxCell>
      </root>
    </mxGraphModel>
  </diagram>
</mxfile>
